<?xml version="1.0" encoding="UTF-8"?>
<svg width="128" height="128" viewBox="0 0 128 128" fill="none" xmlns="http://www.w3.org/2000/svg">
  <rect width="128" height="128" rx="16" fill="#6366F1"/>
  <path d="M64 24C40.1 24 21 43.1 21 67C21 90.9 40.1 110 64 110C76.6 110 87.7 104.8 95.1 96.3L95.1 96.3L108.5 109.7L117.7 100.5L104.3 87.1C112.9 79.7 118 68.6 118 56C118 32.1 97.9 13 74 13L64 24Z" fill="#FEF08A"/>
  <path d="M64 34C46.3 34 32 48.3 32 66C32 83.7 46.3 98 64 98C81.7 98 96 83.7 96 66C96 48.3 81.7 34 64 34ZM72 82L60 70L54 76L66 88L78 76L72 70L72 82Z" fill="#1F2937"/>
</svg>